<svg xmlns="http://www.w3.org/2000/svg" viewBox="0 0 6400 6400" width="100" height="100">
	<style>
		tspan { white-space:pre }
		.shp0 { fill: #0b1f29 } 
	</style>
	<path id="Background" class="shp0" d="M3200 6400C1430.4 6400 0 4969.6 0 3200C0 1430.4 1430.4 0 3200 0C4969.6 0 6400 1430.4 6400 3200C6400 4969.6 4969.6 6400 3200 6400Z" />
	<path id="* " fill="#f7b4ea" d="M4403.37 2341.64L4573.29 2631.68L3521.53 3200.04L4573.29 3771.33L4403.37 4058.44L3418.99 3463.71L3418.99 4568.2L3085.01 4568.2L3085.01 3463.71L2100.63 4058.44L1930.71 3771.33L2982.47 3200.04L1930.71 2631.68L2100.63 2341.64L3085.01 2936.37L3085.01 1831.88L3418.99 1831.88L3418.99 2936.37L4403.37 2341.64Z" />
	<path id="/ " fill="#f7b4ea" d="M797.95 3284.62Q796.6 3303.62 747.45 3333.9Q699.87 3362.82 663.34 3360.22L543.53 3351.7Q1242.11 2119.36 1807.36 1047.88Q1808.71 1028.89 1856.3 999.96Q1905.44 969.68 1941.97 972.28L2061.79 980.81Q1363.2 2213.15 797.95 3284.62Z" />
	<path id="/ " fill="#f7b4ea" d="M5570.34 3032.22Q5571.09 3013.19 5619.25 2981.36Q5665.89 2950.94 5702.48 2952.37L5822.5 2957.08Q5163.52 4211.04 4632.68 5299.98Q4631.93 5319.01 4585.3 5349.43Q4537.14 5381.26 4500.55 5379.83L4380.52 5375.12Q5039.5 4121.16 5570.34 3032.22Z" />
</svg>